<svg width="1532" height="1291" viewBox="0 0 1532 1291" fill="none" xmlns="http://www.w3.org/2000/svg">
<g clip-path="url(#clip0_313_5)">
<rect width="1532" height="1291" fill="#070724"/>
<path d="M1155.5 373C1157.43 373 1159 371.433 1159 369.5C1159 367.567 1157.43 366 1155.5 366C1153.57 366 1152 367.567 1152 369.5C1152 371.433 1153.57 373 1155.5 373Z" fill="white"/>
<path d="M1145.5 374C1146.33 374 1147 373.328 1147 372.5C1147 371.672 1146.33 371 1145.5 371C1144.67 371 1144 371.672 1144 372.5C1144 373.328 1144.67 374 1145.5 374Z" fill="white"/>
<path d="M1167.5 331C1168.33 331 1169 330.328 1169 329.5C1169 328.672 1168.33 328 1167.5 328C1166.67 328 1166 328.672 1166 329.5C1166 330.328 1166.67 331 1167.5 331Z" fill="white"/>
<path d="M1148.5 300C1149.33 300 1150 299.328 1150 298.5C1150 297.672 1149.33 297 1148.5 297C1147.67 297 1147 297.672 1147 298.5C1147 299.328 1147.67 300 1148.5 300Z" fill="white"/>
<path d="M1225.5 171C1226.33 171 1227 170.328 1227 169.5C1227 168.672 1226.33 168 1225.5 168C1224.67 168 1224 168.672 1224 169.5C1224 170.328 1224.67 171 1225.5 171Z" fill="white"/>
<path d="M1222 176C1223.1 176 1224 175.105 1224 174C1224 172.895 1223.1 172 1222 172C1220.9 172 1220 172.895 1220 174C1220 175.105 1220.9 176 1222 176Z" fill="white"/>
<path d="M1199.5 158C1200.33 158 1201 157.328 1201 156.5C1201 155.672 1200.33 155 1199.5 155C1198.67 155 1198 155.672 1198 156.5C1198 157.328 1198.67 158 1199.5 158Z" fill="white"/>
<path d="M1192.5 212C1193.33 212 1194 211.328 1194 210.5C1194 209.672 1193.33 209 1192.5 209C1191.67 209 1191 209.672 1191 210.5C1191 211.328 1191.67 212 1192.5 212Z" fill="white"/>
<path d="M1344 194C1345.1 194 1346 193.105 1346 192C1346 190.895 1345.1 190 1344 190C1342.9 190 1342 190.895 1342 192C1342 193.105 1342.9 194 1344 194Z" fill="white"/>
<path d="M1336 334C1337.1 334 1338 333.105 1338 332C1338 330.895 1337.1 330 1336 330C1334.9 330 1334 330.895 1334 332C1334 333.105 1334.9 334 1336 334Z" fill="white"/>
<path d="M1362.5 352C1363.33 352 1364 351.328 1364 350.5C1364 349.672 1363.33 349 1362.5 349C1361.67 349 1361 349.672 1361 350.5C1361 351.328 1361.67 352 1362.5 352Z" fill="white"/>
<path d="M1164.5 60C1165.88 60 1167 58.8807 1167 57.5C1167 56.1193 1165.88 55 1164.5 55C1163.12 55 1162 56.1193 1162 57.5C1162 58.8807 1163.12 60 1164.5 60Z" fill="white"/>
<path d="M1237.5 66C1238.33 66 1239 65.3284 1239 64.5C1239 63.6716 1238.33 63 1237.5 63C1236.67 63 1236 63.6716 1236 64.5C1236 65.3284 1236.67 66 1237.5 66Z" fill="white"/>
<path d="M1164.5 37C1165.33 37 1166 36.3284 1166 35.5C1166 34.6716 1165.33 34 1164.5 34C1163.67 34 1163 34.6716 1163 35.5C1163 36.3284 1163.67 37 1164.5 37Z" fill="white"/>
<path d="M1016.5 78C1017.33 78 1018 77.3284 1018 76.5C1018 75.6716 1017.33 75 1016.5 75C1015.67 75 1015 75.6716 1015 76.5C1015 77.3284 1015.67 78 1016.5 78Z" fill="white"/>
<path d="M1017 34C1018.1 34 1019 33.1046 1019 32C1019 30.8954 1018.1 30 1017 30C1015.9 30 1015 30.8954 1015 32C1015 33.1046 1015.9 34 1017 34Z" fill="white"/>
<path d="M966.5 12C968.433 12 970 10.433 970 8.5C970 6.567 968.433 5 966.5 5C964.567 5 963 6.567 963 8.5C963 10.433 964.567 12 966.5 12Z" fill="white"/>
<path d="M957.5 57C958.881 57 960 55.8807 960 54.5C960 53.1193 958.881 52 957.5 52C956.119 52 955 53.1193 955 54.5C955 55.8807 956.119 57 957.5 57Z" fill="white"/>
<path d="M860.5 62C862.433 62 864 60.433 864 58.5C864 56.567 862.433 55 860.5 55C858.567 55 857 56.567 857 58.5C857 60.433 858.567 62 860.5 62Z" fill="white"/>
<path d="M921 36C922.105 36 923 35.1046 923 34C923 32.8954 922.105 32 921 32C919.895 32 919 32.8954 919 34C919 35.1046 919.895 36 921 36Z" fill="white"/>
<path d="M965 231C966.105 231 967 230.105 967 229C967 227.895 966.105 227 965 227C963.895 227 963 227.895 963 229C963 230.105 963.895 231 965 231Z" fill="white"/>
<path d="M934 271C935.105 271 936 270.105 936 269C936 267.895 935.105 267 934 267C932.895 267 932 267.895 932 269C932 270.105 932.895 271 934 271Z" fill="white"/>
<path d="M885.5 289C886.328 289 887 288.328 887 287.5C887 286.672 886.328 286 885.5 286C884.672 286 884 286.672 884 287.5C884 288.328 884.672 289 885.5 289Z" fill="white"/>
<path d="M874.5 304C875.328 304 876 303.328 876 302.5C876 301.672 875.328 301 874.5 301C873.672 301 873 301.672 873 302.5C873 303.328 873.672 304 874.5 304Z" fill="white"/>
<path d="M963 414C965.209 414 967 412.209 967 410C967 407.791 965.209 406 963 406C960.791 406 959 407.791 959 410C959 412.209 960.791 414 963 414Z" fill="white"/>
<path d="M852 374C853.105 374 854 373.105 854 372C854 370.895 853.105 370 852 370C850.895 370 850 370.895 850 372C850 373.105 850.895 374 852 374Z" fill="white"/>
<path d="M805 333C806.105 333 807 332.105 807 331C807 329.895 806.105 329 805 329C803.895 329 803 329.895 803 331C803 332.105 803.895 333 805 333Z" fill="white"/>
<path d="M812.5 257.5C813.052 257.5 813.5 257.052 813.5 256.5C813.5 255.948 813.052 255.5 812.5 255.5C811.948 255.5 811.5 255.948 811.5 256.5C811.5 257.052 811.948 257.5 812.5 257.5Z" fill="white"/>
<path d="M766.5 283C767.328 283 768 282.328 768 281.5C768 280.672 767.328 280 766.5 280C765.672 280 765 280.672 765 281.5C765 282.328 765.672 283 766.5 283Z" fill="white"/>
<path d="M1510 19C1511.1 19 1512 18.1046 1512 17C1512 15.8954 1511.1 15 1510 15C1508.9 15 1508 15.8954 1508 17C1508 18.1046 1508.9 19 1510 19Z" fill="white"/>
<path d="M1516.5 23C1517.88 23 1519 21.8807 1519 20.5C1519 19.1193 1517.88 18 1516.5 18C1515.12 18 1514 19.1193 1514 20.5C1514 21.8807 1515.12 23 1516.5 23Z" fill="white"/>
<path d="M1457 202C1458.1 202 1459 201.105 1459 200C1459 198.895 1458.1 198 1457 198C1455.9 198 1455 198.895 1455 200C1455 201.105 1455.9 202 1457 202Z" fill="white"/>
<path d="M1431.5 77C1432.33 77 1433 76.3284 1433 75.5C1433 74.6716 1432.33 74 1431.5 74C1430.67 74 1430 74.6716 1430 75.5C1430 76.3284 1430.67 77 1431.5 77Z" fill="white"/>
<path d="M1420.5 91C1421.33 91 1422 90.3284 1422 89.5C1422 88.6716 1421.33 88 1420.5 88C1419.67 88 1419 88.6716 1419 89.5C1419 90.3284 1419.67 91 1420.5 91Z" fill="white"/>
<path d="M1357.5 44.5C1358.05 44.5 1358.5 44.0523 1358.5 43.5C1358.5 42.9477 1358.05 42.5 1357.5 42.5C1356.95 42.5 1356.5 42.9477 1356.5 43.5C1356.5 44.0523 1356.95 44.5 1357.5 44.5Z" fill="white"/>
<path d="M1310.5 72C1311.33 72 1312 71.3284 1312 70.5C1312 69.6716 1311.33 69 1310.5 69C1309.67 69 1309 69.6716 1309 70.5C1309 71.3284 1309.67 72 1310.5 72Z" fill="white"/>
<path d="M805.5 477C806.881 477 808 475.881 808 474.5C808 473.119 806.881 472 805.5 472C804.119 472 803 473.119 803 474.5C803 475.881 804.119 477 805.5 477Z" fill="white"/>
<path d="M1490 411C1491.1 411 1492 410.105 1492 409C1492 407.895 1491.1 407 1490 407C1488.9 407 1488 407.895 1488 409C1488 410.105 1488.9 411 1490 411Z" fill="white"/>
<path d="M1508.5 358C1509.33 358 1510 357.328 1510 356.5C1510 355.672 1509.33 355 1508.5 355C1507.67 355 1507 355.672 1507 356.5C1507 357.328 1507.67 358 1508.5 358Z" fill="white"/>
<path d="M1072.5 336C1073.33 336 1074 335.328 1074 334.5C1074 333.672 1073.33 333 1072.5 333C1071.67 333 1071 333.672 1071 334.5C1071 335.328 1071.67 336 1072.5 336Z" fill="white"/>
<path d="M1109 419C1110.1 419 1111 418.105 1111 417C1111 415.895 1110.1 415 1109 415C1107.9 415 1107 415.895 1107 417C1107 418.105 1107.9 419 1109 419Z" fill="white"/>
<path d="M1207 448C1208.1 448 1209 447.105 1209 446C1209 444.895 1208.1 444 1207 444C1205.9 444 1205 444.895 1205 446C1205 447.105 1205.9 448 1207 448Z" fill="white"/>
<path d="M1266 433C1267.1 433 1268 432.105 1268 431C1268 429.895 1267.1 429 1266 429C1264.9 429 1264 429.895 1264 431C1264 432.105 1264.9 433 1266 433Z" fill="white"/>
<path d="M1234.5 526C1235.88 526 1237 524.881 1237 523.5C1237 522.119 1235.88 521 1234.5 521C1233.12 521 1232 522.119 1232 523.5C1232 524.881 1233.12 526 1234.5 526Z" fill="white"/>
<path d="M1274 507C1275.1 507 1276 506.105 1276 505C1276 503.895 1275.1 503 1274 503C1272.9 503 1272 503.895 1272 505C1272 506.105 1272.9 507 1274 507Z" fill="white"/>
<path d="M1403.5 483C1404.33 483 1405 482.328 1405 481.5C1405 480.672 1404.33 480 1403.5 480C1402.67 480 1402 480.672 1402 481.5C1402 482.328 1402.67 483 1403.5 483Z" fill="white"/>
<path d="M1417 527C1418.1 527 1419 526.105 1419 525C1419 523.895 1418.1 523 1417 523C1415.9 523 1415 523.895 1415 525C1415 526.105 1415.9 527 1417 527Z" fill="white"/>
<path d="M1251 564C1252.1 564 1253 563.105 1253 562C1253 560.895 1252.1 560 1251 560C1249.9 560 1249 560.895 1249 562C1249 563.105 1249.9 564 1251 564Z" fill="white"/>
<path d="M1326 580C1327.1 580 1328 579.105 1328 578C1328 576.895 1327.1 576 1326 576C1324.9 576 1324 576.895 1324 578C1324 579.105 1324.9 580 1326 580Z" fill="white"/>
<path d="M1417.5 664C1418.88 664 1420 662.881 1420 661.5C1420 660.119 1418.88 659 1417.5 659C1416.12 659 1415 660.119 1415 661.5C1415 662.881 1416.12 664 1417.5 664Z" fill="white"/>
<path d="M1396 698C1397.1 698 1398 697.105 1398 696C1398 694.895 1397.1 694 1396 694C1394.9 694 1394 694.895 1394 696C1394 697.105 1394.9 698 1396 698Z" fill="white"/>
<path d="M1427.5 679C1428.33 679 1429 678.328 1429 677.5C1429 676.672 1428.33 676 1427.5 676C1426.67 676 1426 676.672 1426 677.5C1426 678.328 1426.67 679 1427.5 679Z" fill="white"/>
<path d="M1258.5 645C1259.33 645 1260 644.328 1260 643.5C1260 642.672 1259.33 642 1258.5 642C1257.67 642 1257 642.672 1257 643.5C1257 644.328 1257.67 645 1258.5 645Z" fill="white"/>
<path d="M1343.5 761C1344.88 761 1346 759.881 1346 758.5C1346 757.119 1344.88 756 1343.5 756C1342.12 756 1341 757.119 1341 758.5C1341 759.881 1342.12 761 1343.5 761Z" fill="white"/>
<path d="M1498 675C1499.1 675 1500 674.105 1500 673C1500 671.895 1499.1 671 1498 671C1496.9 671 1496 671.895 1496 673C1496 674.105 1496.9 675 1498 675Z" fill="white"/>
<path d="M1529.5 636C1530.88 636 1532 634.881 1532 633.5C1532 632.119 1530.88 631 1529.5 631C1528.12 631 1527 632.119 1527 633.5C1527 634.881 1528.12 636 1529.5 636Z" fill="white"/>
<path d="M1440.5 576.5C1441.05 576.5 1441.5 576.052 1441.5 575.5C1441.5 574.948 1441.05 574.5 1440.5 574.5C1439.95 574.5 1439.5 574.948 1439.5 575.5C1439.5 576.052 1439.95 576.5 1440.5 576.5Z" fill="white"/>
<path d="M1306.5 920C1307.33 920 1308 919.328 1308 918.5C1308 917.672 1307.33 917 1306.5 917C1305.67 917 1305 917.672 1305 918.5C1305 919.328 1305.67 920 1306.5 920Z" fill="white"/>
<path d="M1499 913C1500.1 913 1501 912.105 1501 911C1501 909.895 1500.1 909 1499 909C1497.9 909 1497 909.895 1497 911C1497 912.105 1497.9 913 1499 913Z" fill="white"/>
<path d="M1467.5 925C1468.33 925 1469 924.328 1469 923.5C1469 922.672 1468.33 922 1467.5 922C1466.67 922 1466 922.672 1466 923.5C1466 924.328 1466.67 925 1467.5 925Z" fill="white"/>
<path d="M1497 1031C1498.1 1031 1499 1030.1 1499 1029C1499 1027.9 1498.1 1027 1497 1027C1495.9 1027 1495 1027.9 1495 1029C1495 1030.1 1495.9 1031 1497 1031Z" fill="white"/>
<path d="M1432.5 1046C1433.33 1046 1434 1045.33 1434 1044.5C1434 1043.67 1433.33 1043 1432.5 1043C1431.67 1043 1431 1043.67 1431 1044.5C1431 1045.33 1431.67 1046 1432.5 1046Z" fill="white"/>
<path d="M824 36C825.105 36 826 35.1046 826 34C826 32.8954 825.105 32 824 32C822.895 32 822 32.8954 822 34C822 35.1046 822.895 36 824 36Z" fill="white"/>
<path d="M602 142C603.105 142 604 141.105 604 140C604 138.895 603.105 138 602 138C600.895 138 600 138.895 600 140C600 141.105 600.895 142 602 142Z" fill="white"/>
<path d="M640.5 316C641.328 316 642 315.328 642 314.5C642 313.672 641.328 313 640.5 313C639.672 313 639 313.672 639 314.5C639 315.328 639.672 316 640.5 316Z" fill="white"/>
<path d="M606 367C607.105 367 608 366.105 608 365C608 363.895 607.105 363 606 363C604.895 363 604 363.895 604 365C604 366.105 604.895 367 606 367Z" fill="white"/>
<path d="M466 10C467.105 10 468 9.10457 468 8C468 6.89543 467.105 6 466 6C464.895 6 464 6.89543 464 8C464 9.10457 464.895 10 466 10Z" fill="white"/>
<path d="M576 10C577.105 10 578 9.10457 578 8C578 6.89543 577.105 6 576 6C574.895 6 574 6.89543 574 8C574 9.10457 574.895 10 576 10Z" fill="white"/>
<path d="M552.5 21C554.433 21 556 19.433 556 17.5C556 15.567 554.433 14 552.5 14C550.567 14 549 15.567 549 17.5C549 19.433 550.567 21 552.5 21Z" fill="white"/>
<path d="M464 63C465.105 63 466 62.1046 466 61C466 59.8954 465.105 59 464 59C462.895 59 462 59.8954 462 61C462 62.1046 462.895 63 464 63Z" fill="white"/>
<path d="M218 80C219.105 80 220 79.1046 220 78C220 76.8954 219.105 76 218 76C216.895 76 216 76.8954 216 78C216 79.1046 216.895 80 218 80Z" fill="white"/>
<path d="M419.5 19C420.328 19 421 18.3284 421 17.5C421 16.6716 420.328 16 419.5 16C418.672 16 418 16.6716 418 17.5C418 18.3284 418.672 19 419.5 19Z" fill="white"/>
<path d="M461.5 292C463.433 292 465 290.433 465 288.5C465 286.567 463.433 285 461.5 285C459.567 285 458 286.567 458 288.5C458 290.433 459.567 292 461.5 292Z" fill="white"/>
<path d="M440.5 281C441.328 281 442 280.328 442 279.5C442 278.672 441.328 278 440.5 278C439.672 278 439 278.672 439 279.5C439 280.328 439.672 281 440.5 281Z" fill="white"/>
<path d="M386 334C387.105 334 388 333.105 388 332C388 330.895 387.105 330 386 330C384.895 330 384 330.895 384 332C384 333.105 384.895 334 386 334Z" fill="white"/>
<path d="M404 344C405.105 344 406 343.105 406 342C406 340.895 405.105 340 404 340C402.895 340 402 340.895 402 342C402 343.105 402.895 344 404 344Z" fill="white"/>
<path d="M378 272C379.105 272 380 271.105 380 270C380 268.895 379.105 268 378 268C376.895 268 376 268.895 376 270C376 271.105 376.895 272 378 272Z" fill="white"/>
<path d="M362 367C363.105 367 364 366.105 364 365C364 363.895 363.105 363 362 363C360.895 363 360 363.895 360 365C360 366.105 360.895 367 362 367Z" fill="white"/>
<path d="M373.5 437C375.433 437 377 435.433 377 433.5C377 431.567 375.433 430 373.5 430C371.567 430 370 431.567 370 433.5C370 435.433 371.567 437 373.5 437Z" fill="white"/>
<path d="M511.5 466C512.328 466 513 465.328 513 464.5C513 463.672 512.328 463 511.5 463C510.672 463 510 463.672 510 464.5C510 465.328 510.672 466 511.5 466Z" fill="white"/>
<path d="M627.5 476C628.328 476 629 475.328 629 474.5C629 473.672 628.328 473 627.5 473C626.672 473 626 473.672 626 474.5C626 475.328 626.672 476 627.5 476Z" fill="white"/>
<path d="M644 494C645.105 494 646 493.105 646 492C646 490.895 645.105 490 644 490C642.895 490 642 490.895 642 492C642 493.105 642.895 494 644 494Z" fill="white"/>
<path d="M117.5 201C118.328 201 119 200.328 119 199.5C119 198.672 118.328 198 117.5 198C116.672 198 116 198.672 116 199.5C116 200.328 116.672 201 117.5 201Z" fill="white"/>
<path d="M118 209C119.105 209 120 208.105 120 207C120 205.895 119.105 205 118 205C116.895 205 116 205.895 116 207C116 208.105 116.895 209 118 209Z" fill="white"/>
<path d="M89.5 12C90.8807 12 92 10.8807 92 9.5C92 8.11929 90.8807 7 89.5 7C88.1193 7 87 8.11929 87 9.5C87 10.8807 88.1193 12 89.5 12Z" fill="white"/>
<path d="M110.5 26C111.881 26 113 24.8807 113 23.5C113 22.1193 111.881 21 110.5 21C109.119 21 108 22.1193 108 23.5C108 24.8807 109.119 26 110.5 26Z" fill="white"/>
<path d="M196.5 1.5C197.052 1.5 197.5 1.05228 197.5 0.5C197.5 -0.0522848 197.052 -0.5 196.5 -0.5C195.948 -0.5 195.5 -0.0522848 195.5 0.5C195.5 1.05228 195.948 1.5 196.5 1.5Z" fill="white"/>
<path d="M274 14C275.105 14 276 13.1046 276 12C276 10.8954 275.105 10 274 10C272.895 10 272 10.8954 272 12C272 13.1046 272.895 14 274 14Z" fill="white"/>
<path d="M283 62C284.105 62 285 61.1046 285 60C285 58.8954 284.105 58 283 58C281.895 58 281 58.8954 281 60C281 61.1046 281.895 62 283 62Z" fill="white"/>
<path d="M63.5 130C64.8807 130 66 128.881 66 127.5C66 126.119 64.8807 125 63.5 125C62.1193 125 61 126.119 61 127.5C61 128.881 62.1193 130 63.5 130Z" fill="white"/>
<path d="M24 62C25.1046 62 26 61.1046 26 60C26 58.8954 25.1046 58 24 58C22.8954 58 22 58.8954 22 60C22 61.1046 22.8954 62 24 62Z" fill="white"/>
<path d="M65.5 36.5C66.0523 36.5 66.5 36.0523 66.5 35.5C66.5 34.9477 66.0523 34.5 65.5 34.5C64.9477 34.5 64.5 34.9477 64.5 35.5C64.5 36.0523 64.9477 36.5 65.5 36.5Z" fill="white"/>
<path d="M28 165C29.1046 165 30 164.105 30 163C30 161.895 29.1046 161 28 161C26.8954 161 26 161.895 26 163C26 164.105 26.8954 165 28 165Z" fill="white"/>
<path d="M22.5 207C23.8807 207 25 205.881 25 204.5C25 203.119 23.8807 202 22.5 202C21.1193 202 20 203.119 20 204.5C20 205.881 21.1193 207 22.5 207Z" fill="white"/>
<path d="M99 272C101.209 272 103 270.209 103 268C103 265.791 101.209 264 99 264C96.7909 264 95 265.791 95 268C95 270.209 96.7909 272 99 272Z" fill="white"/>
<path d="M50.5 229.5C51.0523 229.5 51.5 229.052 51.5 228.5C51.5 227.948 51.0523 227.5 50.5 227.5C49.9477 227.5 49.5 227.948 49.5 228.5C49.5 229.052 49.9477 229.5 50.5 229.5Z" fill="white"/>
<path d="M37.5 259C38.3284 259 39 258.328 39 257.5C39 256.672 38.3284 256 37.5 256C36.6716 256 36 256.672 36 257.5C36 258.328 36.6716 259 37.5 259Z" fill="white"/>
<path d="M85 293C86.1046 293 87 292.105 87 291C87 289.895 86.1046 289 85 289C83.8954 289 83 289.895 83 291C83 292.105 83.8954 293 85 293Z" fill="white"/>
<path d="M11.5 48.5C12.0523 48.5 12.5 48.0523 12.5 47.5C12.5 46.9477 12.0523 46.5 11.5 46.5C10.9477 46.5 10.5 46.9477 10.5 47.5C10.5 48.0523 10.9477 48.5 11.5 48.5Z" fill="white"/>
<path d="M138 430C140.209 430 142 428.209 142 426C142 423.791 140.209 422 138 422C135.791 422 134 423.791 134 426C134 428.209 135.791 430 138 430Z" fill="white"/>
<path d="M262.5 490C264.433 490 266 488.433 266 486.5C266 484.567 264.433 483 262.5 483C260.567 483 259 484.567 259 486.5C259 488.433 260.567 490 262.5 490Z" fill="white"/>
<path d="M269.5 454C270.328 454 271 453.328 271 452.5C271 451.672 270.328 451 269.5 451C268.672 451 268 451.672 268 452.5C268 453.328 268.672 454 269.5 454Z" fill="white"/>
<path d="M134.5 550C135.881 550 137 548.881 137 547.5C137 546.119 135.881 545 134.5 545C133.119 545 132 546.119 132 547.5C132 548.881 133.119 550 134.5 550Z" fill="white"/>
<path d="M3.5 564C5.433 564 7 562.433 7 560.5C7 558.567 5.433 557 3.5 557C1.567 557 0 558.567 0 560.5C0 562.433 1.567 564 3.5 564Z" fill="white"/>
<path d="M429.5 575C430.328 575 431 574.328 431 573.5C431 572.672 430.328 572 429.5 572C428.672 572 428 572.672 428 573.5C428 574.328 428.672 575 429.5 575Z" fill="white"/>
<path d="M486 566C487.105 566 488 565.105 488 564C488 562.895 487.105 562 486 562C484.895 562 484 562.895 484 564C484 565.105 484.895 566 486 566Z" fill="white"/>
<path d="M511 599C512.105 599 513 598.105 513 597C513 595.895 512.105 595 511 595C509.895 595 509 595.895 509 597C509 598.105 509.895 599 511 599Z" fill="white"/>
<path d="M352.5 639C354.433 639 356 637.433 356 635.5C356 633.567 354.433 632 352.5 632C350.567 632 349 633.567 349 635.5C349 637.433 350.567 639 352.5 639Z" fill="white"/>
<path d="M345 711C346.105 711 347 710.105 347 709C347 707.895 346.105 707 345 707C343.895 707 343 707.895 343 709C343 710.105 343.895 711 345 711Z" fill="white"/>
<path d="M256.5 780C258.433 780 260 778.433 260 776.5C260 774.567 258.433 773 256.5 773C254.567 773 253 774.567 253 776.5C253 778.433 254.567 780 256.5 780Z" fill="white"/>
<path d="M235.5 815C237.433 815 239 813.433 239 811.5C239 809.567 237.433 808 235.5 808C233.567 808 232 809.567 232 811.5C232 813.433 233.567 815 235.5 815Z" fill="white"/>
<path d="M229.5 666C230.328 666 231 665.328 231 664.5C231 663.672 230.328 663 229.5 663C228.672 663 228 663.672 228 664.5C228 665.328 228.672 666 229.5 666Z" fill="white"/>
<path d="M233.5 748C234.328 748 235 747.328 235 746.5C235 745.672 234.328 745 233.5 745C232.672 745 232 745.672 232 746.5C232 747.328 232.672 748 233.5 748Z" fill="white"/>
<path d="M42.5 814C43.8807 814 45 812.881 45 811.5C45 810.119 43.8807 809 42.5 809C41.1193 809 40 810.119 40 811.5C40 812.881 41.1193 814 42.5 814Z" fill="white"/>
<path d="M77.5 983C78.8807 983 80 981.881 80 980.5C80 979.119 78.8807 978 77.5 978C76.1193 978 75 979.119 75 980.5C75 981.881 76.1193 983 77.5 983Z" fill="white"/>
<path d="M255 940C256.105 940 257 939.105 257 938C257 936.895 256.105 936 255 936C253.895 936 253 936.895 253 938C253 939.105 253.895 940 255 940Z" fill="white"/>
<path d="M32.5 942C34.433 942 36 940.433 36 938.5C36 936.567 34.433 935 32.5 935C30.567 935 29 936.567 29 938.5C29 940.433 30.567 942 32.5 942Z" fill="white"/>
<path d="M23.5 1088C24.3284 1088 25 1087.33 25 1086.5C25 1085.67 24.3284 1085 23.5 1085C22.6716 1085 22 1085.67 22 1086.5C22 1087.33 22.6716 1088 23.5 1088Z" fill="white"/>
<path d="M108.5 1242C110.433 1242 112 1240.43 112 1238.5C112 1236.57 110.433 1235 108.5 1235C106.567 1235 105 1236.57 105 1238.5C105 1240.43 106.567 1242 108.5 1242Z" fill="white"/>
<path d="M159.5 1162C160.881 1162 162 1160.88 162 1159.5C162 1158.12 160.881 1157 159.5 1157C158.119 1157 157 1158.12 157 1159.5C157 1160.88 158.119 1162 159.5 1162Z" fill="white"/>
<path d="M90.5 1193.5C91.0523 1193.5 91.5 1193.05 91.5 1192.5C91.5 1191.95 91.0523 1191.5 90.5 1191.5C89.9477 1191.5 89.5 1191.95 89.5 1192.5C89.5 1193.05 89.9477 1193.5 90.5 1193.5Z" fill="white"/>
<path d="M300.5 1085C302.433 1085 304 1083.43 304 1081.5C304 1079.57 302.433 1078 300.5 1078C298.567 1078 297 1079.57 297 1081.5C297 1083.43 298.567 1085 300.5 1085Z" fill="white"/>
<path d="M388.5 1158C390.433 1158 392 1156.43 392 1154.5C392 1152.57 390.433 1151 388.5 1151C386.567 1151 385 1152.57 385 1154.5C385 1156.43 386.567 1158 388.5 1158Z" fill="white"/>
<path d="M343 1126C344.105 1126 345 1125.1 345 1124C345 1122.9 344.105 1122 343 1122C341.895 1122 341 1122.9 341 1124C341 1125.1 341.895 1126 343 1126Z" fill="white"/>
<path d="M467.5 1074C468.328 1074 469 1073.33 469 1072.5C469 1071.67 468.328 1071 467.5 1071C466.672 1071 466 1071.67 466 1072.5C466 1073.33 466.672 1074 467.5 1074Z" fill="white"/>
<path d="M532.5 1149C533.881 1149 535 1147.88 535 1146.5C535 1145.12 533.881 1144 532.5 1144C531.119 1144 530 1145.12 530 1146.5C530 1147.88 531.119 1149 532.5 1149Z" fill="white"/>
<path d="M555.5 1156C556.881 1156 558 1154.88 558 1153.5C558 1152.12 556.881 1151 555.5 1151C554.119 1151 553 1152.12 553 1153.5C553 1154.88 554.119 1156 555.5 1156Z" fill="white"/>
<path d="M546.5 1138.5C547.052 1138.5 547.5 1138.05 547.5 1137.5C547.5 1136.95 547.052 1136.5 546.5 1136.5C545.948 1136.5 545.5 1136.95 545.5 1137.5C545.5 1138.05 545.948 1138.5 546.5 1138.5Z" fill="white"/>
<path d="M318 1203C320.209 1203 322 1201.21 322 1199C322 1196.79 320.209 1195 318 1195C315.791 1195 314 1196.79 314 1199C314 1201.21 315.791 1203 318 1203Z" fill="white"/>
<path d="M301.5 1188C302.328 1188 303 1187.33 303 1186.5C303 1185.67 302.328 1185 301.5 1185C300.672 1185 300 1185.67 300 1186.5C300 1187.33 300.672 1188 301.5 1188Z" fill="white"/>
<path d="M408 1232C409.105 1232 410 1231.1 410 1230C410 1228.9 409.105 1228 408 1228C406.895 1228 406 1228.9 406 1230C406 1231.1 406.895 1232 408 1232Z" fill="white"/>
<path d="M491.5 1211.5C492.052 1211.5 492.5 1211.05 492.5 1210.5C492.5 1209.95 492.052 1209.5 491.5 1209.5C490.948 1209.5 490.5 1209.95 490.5 1210.5C490.5 1211.05 490.948 1211.5 491.5 1211.5Z" fill="white"/>
<path d="M565.5 1180C566.328 1180 567 1179.33 567 1178.5C567 1177.67 566.328 1177 565.5 1177C564.672 1177 564 1177.67 564 1178.5C564 1179.33 564.672 1180 565.5 1180Z" fill="white"/>
<path d="M656.5 1239C658.433 1239 660 1237.43 660 1235.5C660 1233.57 658.433 1232 656.5 1232C654.567 1232 653 1233.57 653 1235.5C653 1237.43 654.567 1239 656.5 1239Z" fill="white"/>
<path d="M709 1287C710.105 1287 711 1286.1 711 1285C711 1283.9 710.105 1283 709 1283C707.895 1283 707 1283.9 707 1285C707 1286.1 707.895 1287 709 1287Z" fill="white"/>
<path d="M324.5 1291C325.328 1291 326 1290.33 326 1289.5C326 1288.67 325.328 1288 324.5 1288C323.672 1288 323 1288.67 323 1289.5C323 1290.33 323.672 1291 324.5 1291Z" fill="white"/>
<path d="M332.5 1280C333.328 1280 334 1279.33 334 1278.5C334 1277.67 333.328 1277 332.5 1277C331.672 1277 331 1277.67 331 1278.5C331 1279.33 331.672 1280 332.5 1280Z" fill="white"/>
<path d="M819.5 1031C820.881 1031 822 1029.88 822 1028.5C822 1027.12 820.881 1026 819.5 1026C818.119 1026 817 1027.12 817 1028.5C817 1029.88 818.119 1031 819.5 1031Z" fill="white"/>
<path d="M875 1159C876.105 1159 877 1158.1 877 1157C877 1155.9 876.105 1155 875 1155C873.895 1155 873 1155.9 873 1157C873 1158.1 873.895 1159 875 1159Z" fill="white"/>
<path d="M963.5 1155C964.881 1155 966 1153.88 966 1152.5C966 1151.12 964.881 1150 963.5 1150C962.119 1150 961 1151.12 961 1152.5C961 1153.88 962.119 1155 963.5 1155Z" fill="white"/>
<path d="M962 1147C963.105 1147 964 1146.1 964 1145C964 1143.9 963.105 1143 962 1143C960.895 1143 960 1143.9 960 1145C960 1146.1 960.895 1147 962 1147Z" fill="white"/>
<path d="M1069.5 1193C1075.85 1193 1081 1187.85 1081 1181.5C1081 1175.15 1075.85 1170 1069.5 1170C1063.15 1170 1058 1175.15 1058 1181.5C1058 1187.85 1063.15 1193 1069.5 1193Z" fill="white"/>
<path d="M1003.5 1155C1004.88 1155 1006 1153.88 1006 1152.5C1006 1151.12 1004.88 1150 1003.5 1150C1002.12 1150 1001 1151.12 1001 1152.5C1001 1153.88 1002.12 1155 1003.5 1155Z" fill="white"/>
<path d="M940.5 1196C941.881 1196 943 1194.88 943 1193.5C943 1192.12 941.881 1191 940.5 1191C939.119 1191 938 1192.12 938 1193.5C938 1194.88 939.119 1196 940.5 1196Z" fill="white"/>
<path d="M907 1070C908.105 1070 909 1069.1 909 1068C909 1066.9 908.105 1066 907 1066C905.895 1066 905 1066.9 905 1068C905 1069.1 905.895 1070 907 1070Z" fill="white"/>
<path d="M945 927C946.105 927 947 926.105 947 925C947 923.895 946.105 923 945 923C943.895 923 943 923.895 943 925C943 926.105 943.895 927 945 927Z" fill="white"/>
<path d="M1204 1188C1205.1 1188 1206 1187.1 1206 1186C1206 1184.9 1205.1 1184 1204 1184C1202.9 1184 1202 1184.9 1202 1186C1202 1187.1 1202.9 1188 1204 1188Z" fill="white"/>
<path d="M691.5 850C692.328 850 693 849.328 693 848.5C693 847.672 692.328 847 691.5 847C690.672 847 690 847.672 690 848.5C690 849.328 690.672 850 691.5 850Z" fill="white"/>
<path d="M831 1015C832.105 1015 833 1014.1 833 1013C833 1011.9 832.105 1011 831 1011C829.895 1011 829 1011.9 829 1013C829 1014.1 829.895 1015 831 1015Z" fill="white"/>
<path d="M833.5 1085C834.881 1085 836 1083.88 836 1082.5C836 1081.12 834.881 1080 833.5 1080C832.119 1080 831 1081.12 831 1082.5C831 1083.88 832.119 1085 833.5 1085Z" fill="white"/>
<path d="M833 1192C834.105 1192 835 1191.1 835 1190C835 1188.9 834.105 1188 833 1188C831.895 1188 831 1188.9 831 1190C831 1191.1 831.895 1192 833 1192Z" fill="white"/>
<path d="M1155.5 1026C1157.43 1026 1159 1024.43 1159 1022.5C1159 1020.57 1157.43 1019 1155.5 1019C1153.57 1019 1152 1020.57 1152 1022.5C1152 1024.43 1153.57 1026 1155.5 1026Z" fill="white"/>
<path d="M908 599C910.209 599 912 597.209 912 595C912 592.791 910.209 591 908 591C905.791 591 904 592.791 904 595C904 597.209 905.791 599 908 599Z" fill="white"/>
<path d="M1012.5 532C1014.43 532 1016 530.433 1016 528.5C1016 526.567 1014.43 525 1012.5 525C1010.57 525 1009 526.567 1009 528.5C1009 530.433 1010.57 532 1012.5 532Z" fill="white"/>
<path d="M992.5 549C993.328 549 994 548.328 994 547.5C994 546.672 993.328 546 992.5 546C991.672 546 991 546.672 991 547.5C991 548.328 991.672 549 992.5 549Z" fill="white"/>
<path d="M577 962C578.105 962 579 961.105 579 960C579 958.895 578.105 958 577 958C575.895 958 575 958.895 575 960C575 961.105 575.895 962 577 962Z" fill="white"/>
<path d="M599.5 941C600.328 941 601 940.328 601 939.5C601 938.672 600.328 938 599.5 938C598.672 938 598 938.672 598 939.5C598 940.328 598.672 941 599.5 941Z" fill="white"/>
<path d="M446 961C447.105 961 448 960.105 448 959C448 957.895 447.105 957 446 957C444.895 957 444 957.895 444 959C444 960.105 444.895 961 446 961Z" fill="white"/>
<path d="M868 536C869.105 536 870 535.105 870 534C870 532.895 869.105 532 868 532C866.895 532 866 532.895 866 534C866 535.105 866.895 536 868 536Z" fill="white"/>
<path d="M683.5 576C684.328 576 685 575.328 685 574.5C685 573.672 684.328 573 683.5 573C682.672 573 682 573.672 682 574.5C682 575.328 682.672 576 683.5 576Z" fill="white"/>
<path d="M694.5 528C695.328 528 696 527.328 696 526.5C696 525.672 695.328 525 694.5 525C693.672 525 693 525.672 693 526.5C693 527.328 693.672 528 694.5 528Z" fill="white"/>
<path d="M462.5 663C464.433 663 466 661.433 466 659.5C466 657.567 464.433 656 462.5 656C460.567 656 459 657.567 459 659.5C459 661.433 460.567 663 462.5 663Z" fill="white"/>
<path d="M458.5 740C459.328 740 460 739.328 460 738.5C460 737.672 459.328 737 458.5 737C457.672 737 457 737.672 457 738.5C457 739.328 457.672 740 458.5 740Z" fill="white"/>
<path d="M587 766C588.105 766 589 765.105 589 764C589 762.895 588.105 762 587 762C585.895 762 585 762.895 585 764C585 765.105 585.895 766 587 766Z" fill="white"/>
<path d="M602.5 693C603.881 693 605 691.881 605 690.5C605 689.119 603.881 688 602.5 688C601.119 688 600 689.119 600 690.5C600 691.881 601.119 693 602.5 693Z" fill="white"/>
<path d="M529.5 671C530.328 671 531 670.328 531 669.5C531 668.672 530.328 668 529.5 668C528.672 668 528 668.672 528 669.5C528 670.328 528.672 671 529.5 671Z" fill="white"/>
<path d="M900.5 855C902.433 855 904 853.433 904 851.5C904 849.567 902.433 848 900.5 848C898.567 848 897 849.567 897 851.5C897 853.433 898.567 855 900.5 855Z" fill="white"/>
<path d="M926.5 800C928.433 800 930 798.433 930 796.5C930 794.567 928.433 793 926.5 793C924.567 793 923 794.567 923 796.5C923 798.433 924.567 800 926.5 800Z" fill="white"/>
<path d="M816 825C817.105 825 818 824.105 818 823C818 821.895 817.105 821 816 821C814.895 821 814 821.895 814 823C814 824.105 814.895 825 816 825Z" fill="white"/>
<path d="M1003 674C1004.1 674 1005 673.105 1005 672C1005 670.895 1004.1 670 1003 670C1001.9 670 1001 670.895 1001 672C1001 673.105 1001.9 674 1003 674Z" fill="white"/>
</g>
<defs>
<clipPath id="clip0_313_5">
<rect width="1532" height="1291" fill="white"/>
</clipPath>
</defs>
</svg>
